<mxfile host="Electron" modified="2023-12-08T13:02:32.423Z" agent="Mozilla/5.0 (Macintosh; Intel Mac OS X 10_15_7) AppleWebKit/537.36 (KHTML, like Gecko) draw.io/22.1.2 Chrome/114.0.5735.289 Electron/25.9.4 Safari/537.36" etag="pt1Ywx0vcPSV5lu3mhv3" version="22.1.2" type="device">
  <diagram name="Seite-1" id="ihlZMRCohnuyvQL9K3kw">
    <mxGraphModel dx="1427" dy="799" grid="1" gridSize="10" guides="1" tooltips="1" connect="1" arrows="1" fold="1" page="1" pageScale="1" pageWidth="1169" pageHeight="827" math="0" shadow="0">
      <root>
        <mxCell id="0" />
        <mxCell id="1" parent="0" />
        <mxCell id="xXolq1db_izPYoyvTUZs-1" value="Adress" style="swimlane;fontStyle=1;align=center;verticalAlign=top;childLayout=stackLayout;horizontal=1;startSize=26;horizontalStack=0;resizeParent=1;resizeParentMax=0;resizeLast=0;collapsible=1;marginBottom=0;whiteSpace=wrap;html=1;" parent="1" vertex="1">
          <mxGeometry x="50" y="145" width="160" height="100" as="geometry" />
        </mxCell>
        <mxCell id="xXolq1db_izPYoyvTUZs-2" value="&lt;span style=&quot;color: rgb(0, 0, 0); font-family: Helvetica; font-size: 12px; font-style: normal; font-variant-ligatures: normal; font-variant-caps: normal; font-weight: 400; letter-spacing: normal; orphans: 2; text-align: left; text-indent: 0px; text-transform: none; widows: 2; word-spacing: 0px; -webkit-text-stroke-width: 0px; background-color: rgb(251, 251, 251); text-decoration-thickness: initial; text-decoration-style: initial; text-decoration-color: initial; float: none; display: inline !important;&quot;&gt;- street : String&lt;br&gt;- number: String&lt;br&gt;- zip : int&lt;br&gt;- city : String&lt;br&gt;&lt;/span&gt;" style="text;strokeColor=none;fillColor=none;align=left;verticalAlign=top;spacingLeft=4;spacingRight=4;overflow=hidden;rotatable=0;points=[[0,0.5],[1,0.5]];portConstraint=eastwest;whiteSpace=wrap;html=1;" parent="xXolq1db_izPYoyvTUZs-1" vertex="1">
          <mxGeometry y="26" width="160" height="74" as="geometry" />
        </mxCell>
        <mxCell id="xXolq1db_izPYoyvTUZs-6" value="User" style="swimlane;fontStyle=1;align=center;verticalAlign=top;childLayout=stackLayout;horizontal=1;startSize=26;horizontalStack=0;resizeParent=1;resizeParentMax=0;resizeLast=0;collapsible=1;marginBottom=0;whiteSpace=wrap;html=1;" parent="1" vertex="1">
          <mxGeometry x="345" y="100" width="160" height="160" as="geometry" />
        </mxCell>
        <mxCell id="xXolq1db_izPYoyvTUZs-7" value="- firstName : String&lt;br&gt;- lastName : String&lt;br&gt;- birthDate : Date&lt;br&gt;- email : String&lt;br&gt;- phone : String&lt;br&gt;- adress: Adress&lt;br&gt;- courses: List&amp;lt;Course&amp;gt;" style="text;strokeColor=none;fillColor=none;align=left;verticalAlign=top;spacingLeft=4;spacingRight=4;overflow=hidden;rotatable=0;points=[[0,0.5],[1,0.5]];portConstraint=eastwest;whiteSpace=wrap;html=1;" parent="xXolq1db_izPYoyvTUZs-6" vertex="1">
          <mxGeometry y="26" width="160" height="134" as="geometry" />
        </mxCell>
        <mxCell id="xXolq1db_izPYoyvTUZs-10" value="Course" style="swimlane;fontStyle=1;align=center;verticalAlign=top;childLayout=stackLayout;horizontal=1;startSize=26;horizontalStack=0;resizeParent=1;resizeParentMax=0;resizeLast=0;collapsible=1;marginBottom=0;whiteSpace=wrap;html=1;" parent="1" vertex="1">
          <mxGeometry x="345" y="360" width="160" height="170" as="geometry" />
        </mxCell>
        <mxCell id="xXolq1db_izPYoyvTUZs-11" value="- name : String&lt;br&gt;- date : Date&lt;br&gt;- participants : List&amp;lt;User&amp;gt;&lt;br&gt;- trainer : Trainer&lt;br&gt;- level : Enum&lt;br&gt;- workouts : List&amp;lt;Workout&amp;gt;&lt;br&gt;- licence : Enum" style="text;strokeColor=none;fillColor=none;align=left;verticalAlign=top;spacingLeft=4;spacingRight=4;overflow=hidden;rotatable=0;points=[[0,0.5],[1,0.5]];portConstraint=eastwest;whiteSpace=wrap;html=1;" parent="xXolq1db_izPYoyvTUZs-10" vertex="1">
          <mxGeometry y="26" width="160" height="144" as="geometry" />
        </mxCell>
        <mxCell id="xXolq1db_izPYoyvTUZs-15" value="Excercise" style="swimlane;fontStyle=1;align=center;verticalAlign=top;childLayout=stackLayout;horizontal=1;startSize=26;horizontalStack=0;resizeParent=1;resizeParentMax=0;resizeLast=0;collapsible=1;marginBottom=0;whiteSpace=wrap;html=1;" parent="1" vertex="1">
          <mxGeometry x="790" y="360" width="160" height="160" as="geometry" />
        </mxCell>
        <mxCell id="xXolq1db_izPYoyvTUZs-16" value="- name : String&lt;br&gt;- type : Enum&lt;br&gt;- primaryMuscle : String&lt;br&gt;- secondaryMuscle : String&lt;br&gt;- difficulty : Enum&lt;br&gt;- instruction : String&lt;br&gt;- equipment : String&lt;br&gt;&amp;nbsp;" style="text;strokeColor=none;fillColor=none;align=left;verticalAlign=top;spacingLeft=4;spacingRight=4;overflow=hidden;rotatable=0;points=[[0,0.5],[1,0.5]];portConstraint=eastwest;whiteSpace=wrap;html=1;" parent="xXolq1db_izPYoyvTUZs-15" vertex="1">
          <mxGeometry y="26" width="160" height="134" as="geometry" />
        </mxCell>
        <mxCell id="xXolq1db_izPYoyvTUZs-19" value="Trainer" style="swimlane;fontStyle=1;align=center;verticalAlign=top;childLayout=stackLayout;horizontal=1;startSize=26;horizontalStack=0;resizeParent=1;resizeParentMax=0;resizeLast=0;collapsible=1;marginBottom=0;whiteSpace=wrap;html=1;" parent="1" vertex="1">
          <mxGeometry x="560" y="100" width="160" height="190" as="geometry" />
        </mxCell>
        <mxCell id="xXolq1db_izPYoyvTUZs-20" value="- firstName : String&lt;br style=&quot;border-color: var(--border-color);&quot;&gt;- lastName : String&lt;br style=&quot;border-color: var(--border-color);&quot;&gt;- birthDate : Date&lt;br style=&quot;border-color: var(--border-color);&quot;&gt;- email : String&lt;br style=&quot;border-color: var(--border-color);&quot;&gt;- phone : String&lt;br style=&quot;border-color: var(--border-color);&quot;&gt;- adress: Adress&lt;br&gt;- licence : List&amp;lt;Enum&amp;gt;&lt;br&gt;- courses : List&amp;lt;Course&amp;gt;" style="text;strokeColor=none;fillColor=none;align=left;verticalAlign=top;spacingLeft=4;spacingRight=4;overflow=hidden;rotatable=0;points=[[0,0.5],[1,0.5]];portConstraint=eastwest;whiteSpace=wrap;html=1;" parent="xXolq1db_izPYoyvTUZs-19" vertex="1">
          <mxGeometry y="26" width="160" height="164" as="geometry" />
        </mxCell>
        <mxCell id="07PxMwrFFi4_dQtjBQqY-3" value="Gym" style="swimlane;fontStyle=1;align=center;verticalAlign=top;childLayout=stackLayout;horizontal=1;startSize=26;horizontalStack=0;resizeParent=1;resizeParentMax=0;resizeLast=0;collapsible=1;marginBottom=0;whiteSpace=wrap;html=1;" vertex="1" parent="1">
          <mxGeometry x="780" y="100" width="160" height="190" as="geometry" />
        </mxCell>
        <mxCell id="07PxMwrFFi4_dQtjBQqY-4" value="- name : String&lt;br style=&quot;border-color: var(--border-color);&quot;&gt;- email : String&lt;br style=&quot;border-color: var(--border-color);&quot;&gt;- phone : String&lt;br style=&quot;border-color: var(--border-color);&quot;&gt;- adress: Adress&lt;br&gt;- licence : List&amp;lt;Enum&amp;gt;" style="text;strokeColor=none;fillColor=none;align=left;verticalAlign=top;spacingLeft=4;spacingRight=4;overflow=hidden;rotatable=0;points=[[0,0.5],[1,0.5]];portConstraint=eastwest;whiteSpace=wrap;html=1;" vertex="1" parent="07PxMwrFFi4_dQtjBQqY-3">
          <mxGeometry y="26" width="160" height="164" as="geometry" />
        </mxCell>
        <mxCell id="07PxMwrFFi4_dQtjBQqY-5" value="Workout" style="swimlane;fontStyle=1;align=center;verticalAlign=top;childLayout=stackLayout;horizontal=1;startSize=26;horizontalStack=0;resizeParent=1;resizeParentMax=0;resizeLast=0;collapsible=1;marginBottom=0;whiteSpace=wrap;html=1;" vertex="1" parent="1">
          <mxGeometry x="560" y="360" width="180" height="160" as="geometry" />
        </mxCell>
        <mxCell id="07PxMwrFFi4_dQtjBQqY-6" value="- name : String&lt;br&gt;- date : Date&lt;br&gt;- excercises : List&amp;lt;Exercise&amp;gt;&lt;br&gt;- level : Enum" style="text;strokeColor=none;fillColor=none;align=left;verticalAlign=top;spacingLeft=4;spacingRight=4;overflow=hidden;rotatable=0;points=[[0,0.5],[1,0.5]];portConstraint=eastwest;whiteSpace=wrap;html=1;" vertex="1" parent="07PxMwrFFi4_dQtjBQqY-5">
          <mxGeometry y="26" width="180" height="134" as="geometry" />
        </mxCell>
      </root>
    </mxGraphModel>
  </diagram>
</mxfile>
